<svg width="12" height="11" viewBox="0 0 12 11" fill="none" xmlns="http://www.w3.org/2000/svg">
<path d="M11.524 3.38388C11.4992 2.82126 11.4083 2.43446 11.2779 2.09929C11.1435 1.74352 10.9366 1.425 10.6656 1.16022C10.4008 0.891309 10.0802 0.682356 9.72855 0.550003C9.39145 0.41967 9.00667 0.328687 8.44405 0.303881C7.87722 0.276974 7.69728 0.270752 6.25965 0.270752C4.82203 0.270752 4.64208 0.276974 4.07736 0.30178C3.51474 0.326586 3.12794 0.417649 2.79286 0.547902C2.43701 0.682356 2.11849 0.889208 1.8537 1.16022C1.58479 1.425 1.37592 1.74563 1.24348 2.09727C1.11315 2.43446 1.02217 2.81916 0.997362 3.38178C0.970455 3.9486 0.964233 4.12855 0.964233 5.56617C0.964233 7.0038 0.970455 7.18374 0.995261 7.74847C1.02007 8.31109 1.11113 8.69789 1.24146 9.03305C1.37592 9.38882 1.58479 9.70734 1.8537 9.97213C2.11849 10.241 2.43911 10.45 2.79076 10.5823C3.12794 10.7127 3.51264 10.8037 4.07534 10.8285C4.63998 10.8534 4.82001 10.8595 6.25763 10.8595C7.69526 10.8595 7.8752 10.8534 8.43993 10.8285C9.00255 10.8037 9.38935 10.7127 9.72443 10.5823C10.4361 10.3072 10.9987 9.74459 11.2738 9.03305C11.4041 8.69587 11.4951 8.31109 11.5199 7.74847C11.5447 7.18374 11.551 7.0038 11.551 5.56617C11.551 4.12855 11.5489 3.9486 11.524 3.38388ZM10.5705 7.7071C10.5477 8.22423 10.4609 8.50348 10.3885 8.68964C10.2105 9.15094 9.84442 9.51705 9.38312 9.69498C9.19696 9.76738 8.91569 9.85424 8.40058 9.87694C7.84207 9.90183 7.67457 9.90797 6.26175 9.90797C4.84894 9.90797 4.67933 9.90183 4.12285 9.87694C3.60572 9.85424 3.32647 9.76738 3.1403 9.69498C2.91075 9.61014 2.70179 9.47568 2.53219 9.29986C2.35637 9.12815 2.22191 8.9213 2.13707 8.69174C2.06467 8.50558 1.97781 8.22423 1.9551 7.7092C1.93022 7.15069 1.92408 6.98311 1.92408 5.57029C1.92408 4.15748 1.93022 3.98787 1.9551 3.43147C1.97781 2.91434 2.06467 2.63509 2.13707 2.44892C2.22191 2.21929 2.35637 2.01041 2.53429 1.84073C2.70591 1.6649 2.91277 1.53045 3.14241 1.44569C3.32857 1.37329 3.60992 1.28643 4.12495 1.26364C4.68346 1.23884 4.85104 1.23262 6.26377 1.23262C7.67869 1.23262 7.8462 1.23884 8.40268 1.26364C8.91981 1.28643 9.19906 1.37329 9.38523 1.44569C9.61478 1.53045 9.82374 1.6649 9.99334 1.84073C10.1692 2.01243 10.3036 2.21929 10.3885 2.44892C10.4609 2.63509 10.5477 2.91636 10.5705 3.43147C10.5953 3.98997 10.6015 4.15748 10.6015 5.57029C10.6015 6.98311 10.5953 7.14859 10.5705 7.7071Z" fill="black"/>
<path d="M6.25972 2.84619C4.75802 2.84619 3.53961 4.06452 3.53961 5.5663C3.53961 7.06808 4.75802 8.28641 6.25972 8.28641C7.7615 8.28641 8.97983 7.06808 8.97983 5.5663C8.97983 4.06452 7.7615 2.84619 6.25972 2.84619ZM6.25972 7.33077C5.28549 7.33077 4.49525 6.54061 4.49525 5.5663C4.49525 4.59199 5.28549 3.80183 6.25972 3.80183C7.23403 3.80183 8.02419 4.59199 8.02419 5.5663C8.02419 6.54061 7.23403 7.33077 6.25972 7.33077Z" fill="black"/>
<path d="M9.72245 2.73878C9.72245 3.08946 9.43811 3.3738 9.08735 3.3738C8.73667 3.3738 8.45233 3.08946 8.45233 2.73878C8.45233 2.38802 8.73667 2.10376 9.08735 2.10376C9.43811 2.10376 9.72245 2.38802 9.72245 2.73878Z" fill="black"/>
</svg>
