<svg width="10" height="11" viewBox="0 0 10 11" fill="none" xmlns="http://www.w3.org/2000/svg">
<g clip-path="url(#clip0_52_2097)">
<path d="M9.37236 2.77196C8.80322 2.77196 8.2781 2.58342 7.8564 2.26534C7.37277 1.90072 7.02529 1.36586 6.90258 0.749391C6.87219 0.597075 6.85583 0.43989 6.85427 0.278809H5.22847V4.7213L5.22652 7.15465C5.22652 7.80521 4.80288 8.35682 4.21562 8.55082C4.04519 8.60711 3.86113 8.63379 3.66947 8.62327C3.42482 8.60983 3.19557 8.53601 2.99631 8.41681C2.57228 8.16321 2.28479 7.70315 2.277 7.17686C2.26473 6.35431 2.9297 5.68369 3.75166 5.68369C3.91391 5.68369 4.06973 5.71018 4.21562 5.75829V4.54405V4.10755C4.06175 4.08476 3.90515 4.07288 3.74679 4.07288C2.84711 4.07288 2.00568 4.44685 1.4042 5.12059C0.949591 5.62974 0.676903 6.27932 0.634831 6.96046C0.579709 7.85527 0.90713 8.70586 1.5421 9.33343C1.6354 9.42556 1.73338 9.51107 1.83583 9.58996C2.38023 10.0089 3.04579 10.236 3.74679 10.236C3.90515 10.236 4.06175 10.2243 4.21562 10.2016C4.87046 10.1046 5.47466 9.8048 5.95148 9.33343C6.53737 8.75436 6.86109 7.98557 6.8646 7.16731L6.85622 3.53354C7.13573 3.74916 7.44133 3.92758 7.76934 4.06606C8.27946 4.28129 8.82036 4.39037 9.37703 4.39017V3.20963V2.77157C9.37742 2.77196 9.37275 2.77196 9.37236 2.77196Z" fill="black"/>
</g>
<defs>
<clipPath id="clip0_52_2097">
<rect width="9.97261" height="9.97261" fill="white" transform="translate(0.0168457 0.270752)"/>
</clipPath>
</defs>
</svg>
