<svg width="19" height="13" viewBox="0 0 19 13" fill="none" xmlns="http://www.w3.org/2000/svg">
<rect x="1.03783" y="0.800892" width="17.7033" height="12.0588" rx="1.41113" fill="#1F72CD" stroke="#D9D9D9" stroke-width="0.256569"/>
<path fill-rule="evenodd" clip-rule="evenodd" d="M4.1297 5.03418L2.44934 8.75276H4.46097L4.71035 8.15987H5.28039L5.52977 8.75276H7.74401V8.30025L7.94131 8.75276H9.08669L9.28399 8.29068V8.75276H13.889L14.449 8.17526L14.9733 8.75276L17.3385 8.75755L15.6528 6.90385L17.3385 5.03418H15.0099L14.4649 5.60101L13.9571 5.03418H8.94742L8.51724 5.99398L8.07697 5.03418H6.06954V5.4713L5.84622 5.03418H4.1297ZM11.0063 5.56223H13.6507L14.4596 6.43588L15.2944 5.56223H16.1032L14.8743 6.90333L16.1032 8.22898H15.2577L14.4489 7.34518L13.6098 8.22898H11.0063V5.56223ZM11.6593 6.6018V6.1147V6.11423H13.3093L14.0293 6.89323L13.2774 7.67649H11.6593V7.14472H13.1019V6.6018H11.6593ZM4.51871 5.56223H5.49927L6.61385 8.08382V5.56223H7.68802L8.5489 7.3702L9.34231 5.56223H10.4111V8.23056H9.76077L9.75546 6.13967L8.80733 8.23056H8.22557L7.27213 6.13967V8.23056H5.93423L5.68059 7.63235H4.31026L4.05715 8.23003H3.34032L4.51871 5.56223ZM4.54449 7.07935L4.99596 6.0137L5.4469 7.07935H4.54449Z" fill="white"/>
</svg>
