<svg width="19" height="13" viewBox="0 0 19 13" fill="none" xmlns="http://www.w3.org/2000/svg">
<rect width="17.9599" height="12.3153" transform="translate(0.24292 0.672607)" fill="white"/>
<rect x="0.371205" y="0.800892" width="17.7033" height="12.0588" rx="1.41113" fill="white" stroke="#D9D9D9" stroke-width="0.256569"/>
<path d="M10.016 10.6787C12.016 10.6884 13.8415 9.03269 13.8415 7.01855C13.8415 4.81614 12.016 3.29361 10.016 3.29443H8.29477C6.27097 3.29361 4.60498 4.81655 4.60498 7.01855C4.60498 9.0331 6.27097 10.6884 8.29477 10.6787H10.016Z" fill="#0079BE"/>
<path d="M8.30284 3.59961C6.45332 3.60023 4.95484 5.11289 4.95422 6.97988C4.95484 8.84666 6.45332 10.3593 8.30284 10.3599C10.1526 10.3593 11.6517 8.84666 11.6519 6.97988C11.6517 5.11289 10.1528 3.60023 8.30284 3.59961ZM6.18039 6.97988C6.18 6.54821 6.30984 6.12647 6.55294 5.76977C6.79605 5.41308 7.1411 5.13801 7.54302 4.98053V8.97902C7.14107 8.82165 6.79597 8.54664 6.55286 8.18996C6.30974 7.83328 6.17992 7.41153 6.18039 6.97988ZM9.06246 8.97984V4.98033C9.46468 5.13758 9.81003 5.41262 10.0533 5.76944C10.2966 6.12626 10.4265 6.54822 10.4259 6.98008C10.4264 7.41193 10.2965 7.83385 10.0532 8.19065C9.80994 8.54746 9.46463 8.82251 9.06246 8.97984Z" fill="white"/>
<path d="M10.016 10.6787C12.016 10.6884 13.8415 9.03269 13.8415 7.01855C13.8415 4.81614 12.016 3.29361 10.016 3.29443H8.29477C6.27097 3.29361 4.60498 4.81655 4.60498 7.01855C4.60498 9.0331 6.27097 10.6884 8.29477 10.6787H10.016Z" fill="#0079BE"/>
<path d="M8.30284 3.59961C6.45332 3.60023 4.95484 5.11289 4.95422 6.97988C4.95484 8.84666 6.45332 10.3593 8.30284 10.3599C10.1526 10.3593 11.6517 8.84666 11.6519 6.97988C11.6517 5.11289 10.1528 3.60023 8.30284 3.59961ZM6.18039 6.97988C6.18 6.54821 6.30984 6.12647 6.55294 5.76977C6.79605 5.41308 7.1411 5.13801 7.54302 4.98053V8.97902C7.14107 8.82165 6.79597 8.54664 6.55286 8.18996C6.30974 7.83328 6.17992 7.41153 6.18039 6.97988ZM9.06246 8.97984V4.98033C9.46468 5.13758 9.81003 5.41262 10.0533 5.76944C10.2966 6.12626 10.4265 6.54822 10.4259 6.98008C10.4264 7.41193 10.2965 7.83385 10.0532 8.19065C9.80994 8.54746 9.46463 8.82251 9.06246 8.97984Z" fill="white"/>
</svg>
