<svg width="19" height="13" viewBox="0 0 19 13" fill="none" xmlns="http://www.w3.org/2000/svg">
<rect width="17.9599" height="12.3153" transform="translate(0.57605 0.672607)" fill="white"/>
<rect x="0.704334" y="0.800892" width="17.7033" height="12.0588" rx="1.41113" fill="white" stroke="#D9D9D9" stroke-width="0.256569"/>
<path d="M8.13672 12.7313L18.2712 9.78076V11.4485C18.2712 12.157 17.6969 12.7313 16.9884 12.7313H8.13672Z" fill="#FD6020"/>
<path fill-rule="evenodd" clip-rule="evenodd" d="M16.3474 5.60424C16.905 5.60424 17.2116 5.85236 17.2116 6.32104C17.2395 6.67945 16.9886 6.98271 16.6541 7.03785L17.4068 8.05791H16.8213L16.1802 7.06542H16.1244V8.05791H15.6505V5.60424H16.3474ZM16.1248 6.73465H16.2642C16.5708 6.73465 16.7102 6.5968 16.7102 6.34868C16.7102 6.12812 16.5708 5.99027 16.2642 5.99027H16.1248V6.73465ZM14.0058 8.05791H15.344V7.64437H14.4798V6.98271H15.3161V6.56917H14.4798V6.01778H15.344V5.60424H14.0058V8.05791ZM12.6117 7.2584L11.9705 5.60424H11.4687L12.5002 8.11305H12.7511L13.7826 5.60424H13.2808L12.6117 7.2584ZM6.95268 6.84487C6.95268 7.5341 7.51023 8.11306 8.20718 8.11306C8.4302 8.11306 8.62534 8.05792 8.82049 7.97521V7.42382C8.6811 7.58924 8.48595 7.69952 8.26293 7.69952C7.81689 7.69952 7.45448 7.36868 7.45448 6.92757V6.87244C7.4266 6.43133 7.78901 6.04535 8.23505 6.01779C8.45808 6.01779 8.6811 6.12806 8.82049 6.29348V5.74209C8.65322 5.63181 8.4302 5.60424 8.23505 5.60424C7.51023 5.54911 6.95268 6.12806 6.95268 6.84487ZM6.0885 6.5416C5.80972 6.43132 5.72609 6.37619 5.72609 6.23834C5.75397 6.07292 5.89336 5.93508 6.06062 5.96265C6.20001 5.96265 6.3394 6.04535 6.45091 6.15563L6.70181 5.8248C6.50667 5.65938 6.25577 5.5491 6.00487 5.5491C5.61458 5.52154 5.28005 5.8248 5.25217 6.21077V6.23834C5.25217 6.56917 5.39156 6.76216 5.8376 6.9C5.94911 6.92757 6.06062 6.98271 6.17213 7.03785C6.25577 7.09299 6.31152 7.1757 6.31152 7.28598C6.31152 7.47896 6.14426 7.64438 5.97699 7.64438H5.94911C5.72609 7.64438 5.53095 7.50653 5.44731 7.31354L5.14066 7.61681C5.30793 7.92007 5.64246 8.08549 5.97699 8.08549C6.42303 8.11306 6.78544 7.78222 6.81332 7.34111V7.25841C6.78544 6.92757 6.64606 6.76216 6.0885 6.5416ZM4.47167 8.05791H4.9456V5.60424H4.47167V8.05791ZM2.26929 5.60424H2.96623H3.10562C3.77468 5.63181 4.30436 6.1832 4.27648 6.84486C4.27648 7.20326 4.10922 7.5341 3.83044 7.78222C3.57954 7.97521 3.27288 8.08548 2.96623 8.05791H2.26929V5.60424ZM2.88263 7.64442C3.10565 7.67199 3.35655 7.58928 3.52381 7.45143C3.69108 7.28602 3.77471 7.06546 3.77471 6.81734C3.77471 6.59678 3.69108 6.37623 3.52381 6.21081C3.35655 6.07296 3.10565 5.99026 2.88263 6.01783H2.74324V7.64442H2.88263Z" fill="black"/>
<path fill-rule="evenodd" clip-rule="evenodd" d="M10.2424 5.54736C9.54545 5.54736 8.96002 6.09875 8.96002 6.81555C8.96002 7.50479 9.51758 8.08375 10.2424 8.11132C10.9672 8.13889 11.5248 7.55993 11.5526 6.84312C11.5248 6.12632 10.9672 5.54736 10.2424 5.54736V5.54736Z" fill="#FD6020"/>
</svg>
