<svg width="19" height="13" viewBox="0 0 19 13" fill="none" xmlns="http://www.w3.org/2000/svg">
<rect width="17.9599" height="12.3153" transform="translate(0.242615 0.672607)" fill="white"/>
<rect x="0.370899" y="0.800892" width="17.7033" height="12.0588" rx="1.41113" fill="white" stroke="#D9D9D9" stroke-width="0.256569"/>
<path fill-rule="evenodd" clip-rule="evenodd" d="M9.3498 9.47646C8.73835 10.0041 7.9452 10.3227 7.07851 10.3227C5.14466 10.3227 3.57697 8.73677 3.57697 6.78047C3.57697 4.82417 5.14466 3.23828 7.07851 3.23828C7.9452 3.23828 8.73835 3.55682 9.3498 4.08448C9.96124 3.55682 10.7544 3.23828 11.6211 3.23828C13.5549 3.23828 15.1226 4.82417 15.1226 6.78047C15.1226 8.73677 13.5549 10.3227 11.6211 10.3227C10.7544 10.3227 9.96124 10.0041 9.3498 9.47646Z" fill="#ED0006"/>
<path fill-rule="evenodd" clip-rule="evenodd" d="M9.35114 9.47646C10.104 8.82676 10.5814 7.86001 10.5814 6.78047C10.5814 5.70093 10.104 4.73418 9.35114 4.08448C9.96258 3.55682 10.7557 3.23828 11.6224 3.23828C13.5563 3.23828 15.124 4.82417 15.124 6.78047C15.124 8.73677 13.5563 10.3227 11.6224 10.3227C10.7557 10.3227 9.96258 10.0041 9.35114 9.47646Z" fill="#F9A000"/>
<path fill-rule="evenodd" clip-rule="evenodd" d="M9.34939 9.47645C10.1023 8.82675 10.5796 7.86 10.5796 6.78046C10.5796 5.70092 10.1023 4.73418 9.34939 4.08447C8.59653 4.73418 8.11914 5.70092 8.11914 6.78046C8.11914 7.86 8.59653 8.82675 9.34939 9.47645Z" fill="#FF5E00"/>
</svg>
