<svg width="19" height="13" viewBox="0 0 19 13" fill="none" xmlns="http://www.w3.org/2000/svg">
<rect x="1.03746" y="0.800892" width="17.7033" height="12.0588" rx="1.41113" fill="#5A31F4" stroke="#D9D9D9" stroke-width="0.256569"/>
<path d="M11.0203 6.34867C11.0203 7.13896 10.4662 7.70311 9.69199 7.70311H8.96254C8.95448 7.70311 8.94651 7.7047 8.93907 7.70779C8.93164 7.71088 8.92488 7.71541 8.9192 7.72112C8.91352 7.72683 8.90903 7.7336 8.90597 7.74105C8.90292 7.7485 8.90136 7.75649 8.9014 7.76454V8.80322C8.9014 8.81946 8.89497 8.83504 8.88352 8.84655C8.87206 8.85806 8.85651 8.86457 8.84027 8.86465H8.32983C8.3177 8.86459 8.30585 8.86095 8.29577 8.8542C8.28569 8.84744 8.27782 8.83786 8.27315 8.82666C8.27007 8.81933 8.26846 8.81146 8.2684 8.80351V5.05537C8.26836 5.04732 8.26992 5.03934 8.27297 5.03189C8.27603 5.02443 8.28052 5.01766 8.2862 5.01195C8.29188 5.00624 8.29864 5.00171 8.30607 4.99862C8.31351 4.99553 8.32148 4.99394 8.32954 4.99394H9.69525C10.4662 4.99305 11.0203 5.5572 11.0203 6.34867ZM10.3837 6.34867C10.3837 5.89433 10.0739 5.56225 9.6537 5.56225H8.96254C8.95448 5.56225 8.94651 5.56384 8.93907 5.56693C8.93164 5.57002 8.92488 5.57455 8.9192 5.58026C8.91352 5.58596 8.90903 5.59274 8.90597 5.60019C8.90292 5.60764 8.90136 5.61562 8.9014 5.62368V7.07011C8.9014 7.08632 8.90784 7.10187 8.91931 7.11334C8.93077 7.1248 8.94632 7.13124 8.96254 7.13124H9.6537C10.0739 7.13421 10.3837 6.80183 10.3837 6.34867ZM11.1717 8.14558C11.1664 8.02438 11.1914 7.90377 11.2446 7.79473C11.2978 7.68568 11.3774 7.59165 11.4761 7.52119C11.6753 7.37133 11.9866 7.29387 12.4436 7.27784L12.9303 7.26063V7.117C12.9303 6.82914 12.7374 6.70746 12.4276 6.70746C12.1177 6.70746 11.9213 6.81726 11.8762 6.99681C11.8725 7.00943 11.8647 7.02048 11.8541 7.02822C11.8435 7.03595 11.8306 7.03993 11.8174 7.03954H11.3367C11.3278 7.03978 11.319 7.03807 11.3109 7.03453C11.3028 7.03098 11.2955 7.02569 11.2897 7.01903C11.2839 7.01237 11.2796 7.00451 11.2771 6.996C11.2747 6.98749 11.2741 6.97855 11.2755 6.9698C11.3467 6.54424 11.7008 6.22077 12.4495 6.22077C13.246 6.22077 13.5336 6.59172 13.5336 7.2998V8.80322C13.5335 8.81961 13.5268 8.83528 13.5151 8.84679C13.5034 8.85831 13.4877 8.86473 13.4713 8.86465H12.9867C12.9705 8.8646 12.9549 8.85821 12.9433 8.84684C12.9377 8.84114 12.9332 8.83438 12.9301 8.82695C12.9271 8.81951 12.9255 8.81155 12.9255 8.80351V8.69104C12.9257 8.68174 12.9231 8.67261 12.918 8.66485C12.9128 8.65709 12.9055 8.65106 12.8969 8.64756C12.8883 8.64406 12.8788 8.64324 12.8697 8.64523C12.8606 8.64722 12.8524 8.65191 12.846 8.65869C12.7006 8.81687 12.4658 8.93112 12.0898 8.93112C11.5367 8.93112 11.1717 8.64326 11.1717 8.14558ZM12.9303 7.81974V7.70311L12.3 7.73635C11.9679 7.75326 11.7747 7.89126 11.7747 8.12362C11.7747 8.33373 11.9519 8.45007 12.2614 8.45007C12.6819 8.45007 12.9303 8.22304 12.9303 7.81974ZM14.0203 10.0007V9.56501C14.0204 9.55588 14.0225 9.54687 14.0265 9.53864C14.0304 9.5304 14.0361 9.52314 14.0432 9.51737C14.0503 9.51159 14.0586 9.50744 14.0674 9.50521C14.0763 9.50298 14.0855 9.50273 14.0945 9.50447C14.1687 9.51842 14.2444 9.52554 14.32 9.52584C14.4501 9.53217 14.5786 9.49467 14.6849 9.41934C14.7911 9.34402 14.869 9.23522 14.9061 9.11037L14.9376 9.01006C14.9422 8.99659 14.9422 8.98199 14.9376 8.96851L13.9277 6.37479C13.9241 6.36539 13.9227 6.35524 13.9239 6.34521C13.925 6.33519 13.9286 6.32559 13.9342 6.31725C13.9399 6.3089 13.9475 6.30205 13.9564 6.29729C13.9653 6.29253 13.9752 6.29 13.9853 6.28991H14.4749C14.4875 6.29004 14.4996 6.29393 14.5099 6.30108C14.5202 6.30822 14.5281 6.31829 14.5325 6.32998L15.2183 8.15924C15.2226 8.17139 15.2306 8.18191 15.2411 8.18935C15.2516 8.19679 15.2642 8.20079 15.2771 8.20079C15.29 8.20079 15.3026 8.19679 15.3131 8.18935C15.3236 8.18191 15.3316 8.17139 15.3359 8.15924L15.9315 6.33502C15.9356 6.32255 15.9436 6.31171 15.9542 6.30403C15.9649 6.29636 15.9777 6.29225 15.9908 6.29229H16.4974C16.5075 6.29235 16.5175 6.29487 16.5265 6.29962C16.5355 6.30438 16.5431 6.31123 16.5489 6.3196C16.5546 6.32796 16.5583 6.3376 16.5595 6.34767C16.5607 6.35775 16.5595 6.36797 16.5559 6.37746L15.4756 9.25786C15.2269 9.92736 14.8005 10.0986 14.331 10.0986C14.242 10.101 14.153 10.0903 14.0669 10.0668C14.0526 10.0631 14.0401 10.0543 14.0315 10.0422C14.023 10.0301 14.019 10.0154 14.0203 10.0007ZM4.98826 4.7779C4.3449 4.77331 3.72424 5.01546 3.25397 5.45452C3.23385 5.47294 3.22132 5.49818 3.21879 5.52534C3.21627 5.55249 3.22394 5.57961 3.24031 5.60142L3.53144 5.99908C3.54088 6.01232 3.5531 6.02333 3.56725 6.03134C3.58141 6.03935 3.59714 6.04416 3.61335 6.04543C3.62956 6.04671 3.64585 6.04441 3.66108 6.03871C3.67631 6.03301 3.6901 6.02404 3.70149 6.01244C3.87059 5.84338 4.07169 5.70973 4.29303 5.61928C4.51438 5.52884 4.75153 5.48342 4.99063 5.48568C5.98895 5.48568 6.51037 6.23709 6.51037 6.979C6.51037 7.78561 5.96254 8.35302 5.17522 8.3643C4.56685 8.3643 4.10835 7.961 4.10835 7.4283C4.10899 7.29373 4.13947 7.16097 4.19762 7.0396C4.25576 6.91824 4.34011 6.81128 4.44459 6.72645C4.46667 6.70801 4.48063 6.68162 4.48347 6.65298C4.4863 6.62435 4.47777 6.59574 4.45972 6.57332L4.15376 6.18694C4.1445 6.17525 4.133 6.16554 4.11994 6.15837C4.10687 6.1512 4.0925 6.14673 4.07767 6.14521C4.06284 6.14368 4.04786 6.14515 4.03361 6.14951C4.01936 6.15388 4.00612 6.16105 3.99469 6.17061C3.80678 6.32201 3.65515 6.51354 3.5509 6.73117C3.44666 6.9488 3.39245 7.187 3.39226 7.4283C3.39226 8.34531 4.17156 9.06467 5.16988 9.0706H5.18324C6.36851 9.05517 7.22557 8.17734 7.22557 6.97752C7.22557 5.91213 6.44093 4.7779 4.98856 4.7779H4.98826Z" fill="white"/>
</svg>
