<svg width="19" height="13" viewBox="0 0 19 13" fill="none" xmlns="http://www.w3.org/2000/svg">
<rect x="0.704701" y="0.800892" width="17.7033" height="12.0588" rx="1.41113" fill="white" stroke="#D9D9D9" stroke-width="0.256569"/>
<path fill-rule="evenodd" clip-rule="evenodd" d="M6.02922 9.01522H4.9412L4.12531 5.90259C4.08659 5.75941 4.00437 5.63283 3.88342 5.57317C3.58157 5.42324 3.24896 5.30392 2.88611 5.24375V5.12391H4.63882C4.88072 5.12391 5.06215 5.30392 5.09238 5.51299L5.51571 7.75824L6.6032 5.12391H7.66098L6.02922 9.01522ZM8.26581 9.01522H7.23827L8.08439 5.12391H9.11193L8.26581 9.01522ZM10.4413 6.20194C10.4716 5.99235 10.653 5.87252 10.8647 5.87252C11.1973 5.84243 11.5596 5.9026 11.862 6.05201L12.0434 5.21419C11.741 5.09436 11.4084 5.03418 11.1066 5.03418C10.1093 5.03418 9.38355 5.57318 9.38355 6.32125C9.38355 6.89035 9.89759 7.18916 10.2604 7.36917C10.653 7.54867 10.8042 7.66851 10.7739 7.848C10.7739 8.11724 10.4716 8.23708 10.1697 8.23708C9.80688 8.23708 9.44403 8.14733 9.11195 7.99741L8.93052 8.83574C9.29337 8.98515 9.68593 9.04533 10.0488 9.04533C11.167 9.0749 11.862 8.53641 11.862 7.72816C11.862 6.71033 10.4413 6.65067 10.4413 6.20194ZM15.4578 9.01522L14.642 5.12391H13.7656C13.5842 5.12391 13.4027 5.24375 13.3423 5.42324L11.8315 9.01522H12.8892L13.1004 8.44665H14.4001L14.521 9.01522H15.4578ZM13.9172 6.17186L14.219 7.63843H13.3729L13.9172 6.17186Z" fill="#172B85"/>
</svg>
